<svg width="120" height="143" viewBox="0 0 120 143" fill="none" xmlns="http://www.w3.org/2000/svg">
<path d="M62.3635 142V74.032H79.6435V125.008H119.5V142H62.3635Z" fill="#E8E8E8"/>
<path d="M0.112061 130.672L10.9601 120.496C17.7761 128.752 32.7521 129.136 33.2321 121.84C33.4241 118 27.1841 115.792 21.6161 115.024C10.6721 113.296 0.688061 106.384 0.688061 93.424C0.688061 80.08 12.7841 73.072 25.2641 73.072C33.5201 73.072 41.4881 75.376 48.4961 83.92L37.2641 92.56C30.1601 84.976 17.9681 85.264 17.6801 93.136C17.8721 96.4 21.4241 98.32 26.7041 99.472C38.8001 101.68 50.8961 105.904 50.1281 122.608C49.5521 135.76 35.7281 142.96 23.2481 142.96C15.0881 142.96 6.44806 138.832 0.112061 130.672Z" fill="#E8E8E8"/>
<path d="M79.9998 25.184L98.4319 0.0319824H119.84L92.9599 32.864L119.744 68H97.9519L80.5759 43.712L79.9998 44.48V68H62.7198V0.0319824H79.9998V25.184Z" fill="#E8E8E8"/>
<path d="M3.3761 68V0.0319824H30.5441C47.1521 0.0319824 55.4081 12.032 55.4081 24.032C55.4081 36.128 47.0561 48.128 30.6401 48.128H20.5601V68H3.3761ZM20.5601 32.864H30.5441C40.9121 32.96 40.9121 15.968 30.5441 16.064H20.5601V32.864Z" fill="#E8E8E8"/>
</svg>
