<svg width="88" height="10" viewBox="0 0 88 10" fill="none" xmlns="http://www.w3.org/2000/svg">
<path d="M2.736 9V2.184H0.048V0.599999H7.368V2.184H4.68V9H2.736ZM12.3768 9.144C11.7128 9.144 11.0968 9.036 10.5288 8.82C9.96878 8.604 9.48078 8.3 9.06478 7.908C8.65678 7.516 8.33678 7.056 8.10478 6.528C7.88078 6 7.76878 5.424 7.76878 4.8C7.76878 4.176 7.88078 3.6 8.10478 3.072C8.33678 2.544 8.66078 2.084 9.07678 1.692C9.49278 1.3 9.98078 0.995999 10.5408 0.779999C11.1008 0.564 11.7088 0.456 12.3648 0.456C13.0288 0.456 13.6368 0.564 14.1888 0.779999C14.7488 0.995999 15.2328 1.3 15.6408 1.692C16.0568 2.084 16.3808 2.544 16.6128 3.072C16.8448 3.592 16.9608 4.168 16.9608 4.8C16.9608 5.424 16.8448 6.004 16.6128 6.54C16.3808 7.068 16.0568 7.528 15.6408 7.92C15.2328 8.304 14.7488 8.604 14.1888 8.82C13.6368 9.036 13.0328 9.144 12.3768 9.144ZM12.3648 7.488C12.7408 7.488 13.0848 7.424 13.3968 7.296C13.7168 7.168 13.9968 6.984 14.2368 6.744C14.4768 6.504 14.6608 6.22 14.7888 5.892C14.9248 5.564 14.9928 5.2 14.9928 4.8C14.9928 4.4 14.9248 4.036 14.7888 3.708C14.6608 3.38 14.4768 3.096 14.2368 2.856C14.0048 2.616 13.7288 2.432 13.4088 2.304C13.0888 2.176 12.7408 2.112 12.3648 2.112C11.9888 2.112 11.6408 2.176 11.3208 2.304C11.0088 2.432 10.7328 2.616 10.4928 2.856C10.2528 3.096 10.0648 3.38 9.92878 3.708C9.80078 4.036 9.73678 4.4 9.73678 4.8C9.73678 5.192 9.80078 5.556 9.92878 5.892C10.0648 6.22 10.2488 6.504 10.4808 6.744C10.7208 6.984 11.0008 7.168 11.3208 7.296C11.6408 7.424 11.9888 7.488 12.3648 7.488ZM22.4778 9.144C21.8138 9.144 21.2018 9.04 20.6418 8.832C20.0898 8.616 19.6058 8.312 19.1898 7.92C18.7818 7.528 18.4618 7.068 18.2298 6.54C18.0058 6.012 17.8938 5.432 17.8938 4.8C17.8938 4.168 18.0058 3.588 18.2298 3.06C18.4618 2.532 18.7858 2.072 19.2018 1.68C19.6178 1.288 20.1058 0.987999 20.6658 0.779999C21.2258 0.564 21.8418 0.456 22.5138 0.456C23.2578 0.456 23.9258 0.58 24.5178 0.827999C25.1178 1.076 25.6218 1.436 26.0298 1.908L24.7818 3.06C24.4778 2.74 24.1458 2.504 23.7858 2.352C23.4258 2.192 23.0338 2.112 22.6098 2.112C22.2018 2.112 21.8298 2.176 21.4938 2.304C21.1578 2.432 20.8658 2.616 20.6178 2.856C20.3778 3.096 20.1898 3.38 20.0538 3.708C19.9258 4.036 19.8618 4.4 19.8618 4.8C19.8618 5.192 19.9258 5.552 20.0538 5.88C20.1898 6.208 20.3778 6.496 20.6178 6.744C20.8658 6.984 21.1538 7.168 21.4818 7.296C21.8178 7.424 22.1858 7.488 22.5858 7.488C22.9698 7.488 23.3418 7.428 23.7018 7.308C24.0698 7.18 24.4258 6.968 24.7698 6.672L25.8738 8.076C25.4178 8.42 24.8858 8.684 24.2778 8.868C23.6778 9.052 23.0778 9.144 22.4778 9.144ZM24.0978 7.824V4.668H25.8738V8.076L24.0978 7.824ZM31.7356 9.144C31.0716 9.144 30.4596 9.04 29.8996 8.832C29.3476 8.616 28.8636 8.312 28.4476 7.92C28.0396 7.528 27.7196 7.068 27.4876 6.54C27.2636 6.012 27.1516 5.432 27.1516 4.8C27.1516 4.168 27.2636 3.588 27.4876 3.06C27.7196 2.532 28.0436 2.072 28.4596 1.68C28.8756 1.288 29.3636 0.987999 29.9236 0.779999C30.4836 0.564 31.0996 0.456 31.7716 0.456C32.5156 0.456 33.1836 0.58 33.7756 0.827999C34.3756 1.076 34.8796 1.436 35.2876 1.908L34.0396 3.06C33.7356 2.74 33.4036 2.504 33.0436 2.352C32.6836 2.192 32.2916 2.112 31.8676 2.112C31.4596 2.112 31.0876 2.176 30.7516 2.304C30.4156 2.432 30.1236 2.616 29.8756 2.856C29.6356 3.096 29.4476 3.38 29.3116 3.708C29.1836 4.036 29.1196 4.4 29.1196 4.8C29.1196 5.192 29.1836 5.552 29.3116 5.88C29.4476 6.208 29.6356 6.496 29.8756 6.744C30.1236 6.984 30.4116 7.168 30.7396 7.296C31.0756 7.424 31.4436 7.488 31.8436 7.488C32.2276 7.488 32.5996 7.428 32.9596 7.308C33.3276 7.18 33.6836 6.968 34.0276 6.672L35.1316 8.076C34.6756 8.42 34.1436 8.684 33.5356 8.868C32.9356 9.052 32.3356 9.144 31.7356 9.144ZM33.3556 7.824V4.668H35.1316V8.076L33.3556 7.824ZM36.9374 9V0.599999H38.8814V7.416H43.0934V9H36.9374ZM45.9676 3.984H50.0116V5.496H45.9676V3.984ZM46.1116 7.44H50.6836V9H44.1796V0.599999H50.5276V2.16H46.1116V7.44ZM58.3888 9.144C57.7168 9.144 57.0728 9.056 56.4568 8.88C55.8408 8.696 55.3448 8.46 54.9688 8.172L55.6288 6.708C55.9888 6.964 56.4128 7.176 56.9008 7.344C57.3968 7.504 57.8968 7.584 58.4008 7.584C58.7848 7.584 59.0928 7.548 59.3248 7.476C59.5648 7.396 59.7408 7.288 59.8528 7.152C59.9648 7.016 60.0208 6.86 60.0208 6.684C60.0208 6.46 59.9328 6.284 59.7568 6.156C59.5808 6.02 59.3488 5.912 59.0608 5.832C58.7728 5.744 58.4528 5.664 58.1008 5.592C57.7568 5.512 57.4088 5.416 57.0568 5.304C56.7128 5.192 56.3968 5.048 56.1088 4.872C55.8208 4.696 55.5848 4.464 55.4008 4.176C55.2248 3.888 55.1368 3.52 55.1368 3.072C55.1368 2.592 55.2648 2.156 55.5208 1.764C55.7848 1.364 56.1768 1.048 56.6968 0.816C57.2248 0.576 57.8848 0.456 58.6768 0.456C59.2048 0.456 59.7248 0.52 60.2368 0.648C60.7488 0.767999 61.2008 0.951999 61.5928 1.2L60.9928 2.676C60.6008 2.452 60.2088 2.288 59.8168 2.184C59.4248 2.072 59.0408 2.016 58.6648 2.016C58.2888 2.016 57.9808 2.06 57.7408 2.148C57.5008 2.236 57.3288 2.352 57.2248 2.496C57.1208 2.632 57.0688 2.792 57.0688 2.976C57.0688 3.192 57.1568 3.368 57.3328 3.504C57.5088 3.632 57.7408 3.736 58.0288 3.816C58.3168 3.896 58.6328 3.976 58.9768 4.056C59.3288 4.136 59.6768 4.228 60.0208 4.332C60.3728 4.436 60.6928 4.576 60.9808 4.752C61.2688 4.928 61.5008 5.16 61.6768 5.448C61.8608 5.736 61.9528 6.1 61.9528 6.54C61.9528 7.012 61.8208 7.444 61.5568 7.836C61.2928 8.228 60.8968 8.544 60.3688 8.784C59.8488 9.024 59.1888 9.144 58.3888 9.144ZM62.1772 9L65.9212 0.599999H67.8412L71.5972 9H69.5572L66.4852 1.584H67.2532L64.1692 9H62.1772ZM64.0492 7.2L64.5652 5.724H68.8852L69.4132 7.2H64.0492ZM74.5316 9L70.9076 0.599999H73.0076L76.1756 8.04H74.9396L78.1556 0.599999H80.0876L76.4516 9H74.5316ZM82.577 3.984H86.621V5.496H82.577V3.984ZM82.721 7.44H87.293V9H80.789V0.599999H87.137V2.16H82.721V7.44Z" fill="white"/>
</svg>
